# xmcd CD database file
#
# Track frame offsets:
#	150
#	15357
#	29561
#	44112
#	55988
#	71738
#	82826
#	96241
#	110569
#	124352
#	136885
#
# Disc length: 2052 seconds
#
# Revision: 0
# Processed by: cddbd v1.5.2PL0 Copyright (c) Steve Scherf et al.
# Submitted via: CDex 1.70beta2
#
DISCID=9a08020b
DTITLE=Randy Overton - Randy Overton
DYEAR=1997
DGENRE=Country
TTITLE0=Home Sweet Honkytonk
TTITLE1=Waitin' For The Other Shoe To Fall
TTITLE2=I Keep It Under My Hat
TTITLE3=Sweet Sweet Rain
TTITLE4=I Just Don't Know
TTITLE5=My Heart Won't Wander Very Far From You
TTITLE6=You Oughta See My Heart
TTITLE7=Back In Tupelo
TTITLE8=Dad
TTITLE9=Wanted Woman
TTITLE10=I Wish It Was That Easy
EXTD=YEAR: 1997
EXTT0=
EXTT1=
EXTT2=
EXTT3=
EXTT4=
EXTT5=
EXTT6=
EXTT7=
EXTT8=
EXTT9=
EXTT10=
PLAYORDER=
